<?xml version="1.0" encoding="UTF-8" standalone="no"?>
<!-- Created with Inkscape (http://www.inkscape.org/) -->

<svg
   width="96mm"
   height="19.70792mm"
   viewBox="0 0 96 19.70792"
   version="1.1"
   id="svg1"
   inkscape:version="1.4 (1:1.4+202410161351+e7c3feb100)"
   sodipodi:docname="logo.svg"
   xmlns:inkscape="http://www.inkscape.org/namespaces/inkscape"
   xmlns:sodipodi="http://sodipodi.sourceforge.net/DTD/sodipodi-0.dtd"
   xmlns="http://www.w3.org/2000/svg"
   xmlns:svg="http://www.w3.org/2000/svg">
  <sodipodi:namedview
     id="namedview1"
     pagecolor="#ffffff"
     bordercolor="#666666"
     borderopacity="1.0"
     inkscape:showpageshadow="2"
     inkscape:pageopacity="0.0"
     inkscape:pagecheckerboard="0"
     inkscape:deskcolor="#d1d1d1"
     inkscape:document-units="mm"
     inkscape:zoom="2.8284271"
     inkscape:cx="172.00372"
     inkscape:cy="50.027805"
     inkscape:window-width="2560"
     inkscape:window-height="1376"
     inkscape:window-x="1920"
     inkscape:window-y="27"
     inkscape:window-maximized="1"
     inkscape:current-layer="layer1" />
  <defs
     id="defs1" />
  <g
     inkscape:label="Layer 1"
     inkscape:groupmode="layer"
     id="layer1">
    <path
       style="font-style:italic;font-weight:500;font-size:14.0638px;line-height:1.25;font-family:'Alumni Sans';-inkscape-font-specification:'Alumni Sans Medium Italic';text-align:center;text-anchor:middle;fill:#2a7fff;stroke-width:0.264583"
       d="m 3.4434526,14.948758 q -1.2604106,0 -2.0540039,-0.350113 Q 0.59585692,14.225189 0.29242525,13.338232 -0.01100799,12.451277 0.22240479,10.887433 L 0.33911115,10.093839 H 2.183047 l -0.140041,0.9103 q -0.140041,1.097023 -0.023335,1.703887 0.1400409,0.583525 0.5135013,0.816934 0.3734538,0.233411 0.9336378,0.233411 0.7235679,0 1.2837518,-0.513502 Q 5.3340853,12.708026 5.5208122,11.330911 5.6842045,10.32725 5.427441,9.8370908 5.1940316,9.3235892 4.6338494,9.0201586 4.0736653,8.7167238 3.1867102,8.3432688 2.4864819,8.0164961 1.9729805,7.573019 1.4594808,7.1295411 1.2494126,6.4293127 1.0393427,5.7057432 1.1793922,4.6320595 1.3661206,3.3716489 1.8095982,2.5780571 2.2764171,1.7611242 3.09335,1.3643275 3.9336243,0.96753227 5.2173762,0.96753227 q 1.6805469,0 2.4741386,0.81693313 0.7935935,0.7935917 0.5835233,2.2874117 L 8.0649702,5.635721 q -0.4434775,0 -0.9102964,0 -0.4434775,0 -0.8636155,0 L 6.4310993,4.5620373 Q 6.5944916,3.4650124 6.2443725,2.9281713 5.9175995,2.3913286 5.053984,2.3913286 q -0.9336378,0 -1.4004566,0.5368427 -0.4668189,0.5368411 -0.6302061,1.6572073 -0.1167064,0.8402726 0.1167063,1.3304328 0.2567507,0.4901601 0.746911,0.7702521 0.49016,0.2800903 1.1437057,0.536841 0.9803204,0.3967965 1.5638439,0.8402744 0.6068649,0.4201365 0.816933,1.0970232 0.2100682,0.6768887 0.023335,1.9372999 -0.1867285,1.423797 -0.7702521,2.287413 -0.5835235,0.840274 -1.4237979,1.21373 -0.8402725,0.350113 -1.7972536,0.350113 z M 9.0452731,14.785367 11.005911,0.99086687 h 1.797251 L 11.962891,6.9194679 h 3.571168 l 0.840263,-5.92860103 h 1.797265 L 16.210947,14.785367 h -1.797265 l 0.933651,-6.5121247 h -3.571171 l -0.933638,6.5121247 z m 8.7528269,0 4.831581,-13.79450013 h 2.4508 l 0.88695,13.79450013 h -1.983976 l -0.210078,-3.034325 h -3.010981 l -1.050341,3.034325 z m 3.151023,-3.967962 h 2.917626 l -0.35012,-7.8658975 z m 6.722183,3.967962 1.960642,-13.79450013 h 4.45811 q 1.237084,0 1.867285,0.58352373 0.630201,0.560184 0.46681,1.7272311 l -0.350104,2.4974799 q -0.116672,0.816933 -0.443474,1.5405029 -0.326784,0.7235697 -1.027005,1.1670471 -0.676888,0.4434773 -1.867286,0.4434773 h -2.35743 l -0.816927,5.8352381 z m 2.84759,-6.8855801 h 1.773914 q 0.84028,0 1.33044,-0.5601824 0.513494,-0.5601825 0.676886,-1.7739122 L 34.510198,4.0251896 Q 34.673506,2.9748473 34.346888,2.5080282 34.043455,2.0178698 33.459923,2.0178698 h -2.100681 z m 6.185339,6.8855801 1.96064,-13.79450013 h 6.068648 L 44.523446,2.2746189 h -4.178028 l -0.653554,4.6215077 h 3.407786 l -0.210062,1.4004561 h -3.38445 l -0.723557,5.2283733 h 4.178029 l -0.186728,1.260411 z"
       id="text57"
       aria-label="SHAPE" />
    <path
       id="path57"
       style="font-size:11.6782px;line-height:1.25;font-family:'Suez One';-inkscape-font-specification:'Suez One, Normal';text-align:center;text-anchor:middle;fill:#0044aa;stroke-width:0.264583"
       d="m 89.674787,19.638572 q -2.228905,0 -3.372434,-0.697732 -1.124129,-0.697749 -1.124129,-2.054461 0,-1.434251 1.31796,-2.519625 -0.407013,-0.407014 -0.407013,-0.891547 0,-0.697748 0.910915,-1.976939 -1.589279,-0.833408 -1.589279,-2.8684842 0,-1.7831246 1.201668,-2.7522091 1.221052,-0.9884691 3.508094,-0.9884691 1.608679,0 2.635901,0.4845506 l 2.325799,-0.7171336 h 0.910949 v 2.8103462 h -1.511773 q 0.09691,0.484551 0.09691,0.9497165 0,1.7831077 -1.20167,2.7134237 -1.201666,0.930333 -3.527462,0.930333 -0.794656,0 -1.434251,-0.116342 v 0.271335 q 0,0.310106 0.251969,0.445782 0.271334,0.116342 1.143512,0.232582 l 1.744356,0.251969 q 2.05446,0.29072 2.829711,1.007836 0.794659,0.717134 0.794659,1.841263 0,1.744355 -1.434236,2.694056 -1.434265,0.949699 -4.070149,0.949699 z m 0.465151,-9.477647 q 0.407027,0 0.930332,-0.116341 0.07751,-0.2325676 0.135593,-0.697733 0.07751,-0.4651654 0.07751,-0.8527932 0,-0.8721771 -0.387643,-1.2985741 -0.368242,-0.4263965 -1.162899,-0.4263965 -0.387627,0 -0.852793,0.1163414 -0.09691,0.2325829 -0.174428,0.6783472 -0.05808,0.4457812 -0.05808,0.8528095 0,0.8915467 0.368243,1.3179428 0.368258,0.4263969 1.124145,0.4263969 z m 0.426397,7.287527 q 0.891563,0 1.356727,-0.155011 0.116342,-0.232583 0.116342,-0.62021 0,-0.465165 -0.329507,-0.717133 -0.329489,-0.232566 -1.182265,-0.348858 l -0.620227,-0.09692 q -0.852777,-0.09692 -1.724954,-0.271352 -0.116342,0.523303 -0.116342,0.833408 0,0.697749 0.62021,1.027238 0.620211,0.348875 1.880016,0.348875 z" />
    <path
       id="path58"
       style="font-size:11.6782px;line-height:1.25;font-family:'Suez One';-inkscape-font-specification:'Suez One, Normal';text-align:center;text-anchor:middle;fill:#0044aa;stroke-width:0.264583"
       d="m 57.718734,0.39256916 c -0.684803,0.0258902 -1.880213,0.19333405 -3.585816,0.503439 l -0.601223,0.0969064 -0.05825,1.47343784 0.853375,0.4451175 c 0.167989,0.1033963 0.270886,0.2003408 0.309606,0.2907418 0.03866,0.077505 0.05825,0.2586262 0.05825,0.5428906 V 13.08573 l -3.729046,0.0026 c -0.01,-8.32e-4 -0.02025,-0.0036 -0.03004,-0.0036 -0.503918,0 -0.84657,-0.103733 -1.027453,-0.310469 -0.167991,-0.206725 -0.252151,-0.791459 -0.252151,-1.411686 V 7.3695176 h 3.256475 V 5.0830586 H 49.655988 V 2.8926283 l -1.123515,-0.1355101 -2.125261,1.9357077 -0.0066,7.3671821 c 0,1.149987 0.271237,2.009557 0.813908,2.578086 0.535369,0.54809 1.361393,0.824502 2.475164,0.831916 l 37.760454,0.0016 v -2.389318 l -3.630411,0.0036 c -0.0083,-0.08862 -0.01328,-0.584944 -0.01328,-0.715276 V 8.5711812 c 0,-2.4550169 -1.027073,-3.6827342 -3.081533,-3.6827342 -0.439326,0 -0.911196,0.071365 -1.415114,0.2135534 -0.491008,0.1292865 -1.130369,0.3749492 -1.918552,0.7367191 -0.06459,-0.3230696 -0.14891,-0.6206692 -0.252189,-0.8920049 -0.74943,0.02589 -1.970333,0.206928 -3.663007,0.5428903 l -0.426247,0.077191 -0.05825,1.4537097 0.853357,0.4657018 c 0.168022,0.1033964 0.270872,0.2003409 0.309607,0.2907418 0.03866,0.077507 0.05825,0.2577679 0.05825,0.5420318 v 4.7668 h -3.321668 c -0.0083,-0.0853 -0.01161,-0.574856 -0.01161,-0.696409 V 6.1877031 C 70.840658,5.9163506 70.73693,5.5022887 70.569024,4.9466887 c -0.491005,0.013278 -1.033444,0.071531 -1.627814,0.17496 -0.581458,0.090451 -1.407845,0.2383767 -2.480309,0.4451189 l -0.09693,1.4537098 0.852511,0.4657019 c 0.180935,0.1033963 0.290604,0.2003408 0.329324,0.2907417 0.05162,0.077507 0.07718,0.2577679 0.07718,0.5420323 v 4.7667997 h -3.320805 c -0.0083,-0.0858 -0.01328,-0.573428 -0.01328,-0.696409 V 8.5711015 c 0,-2.4550157 -1.007488,-3.6827328 -3.023196,-3.6827328 -0.490991,0 -0.988371,0.078169 -1.492304,0.23328 -0.49099,0.1420658 -1.092116,0.3742321 -1.802776,0.6972658 V 1.4003218 C 57.918997,1.0385188 57.835689,0.70269083 57.719331,0.39258573 Z m 2.03433,7.07386864 c 0.426396,0 0.730775,0.064558 0.911676,0.1938273 0.180835,0.1292865 0.283734,0.316264 0.309624,0.5617587 0.03866,0.2325822 0.05825,0.6338921 0.05825,1.2024213 v 3.6612919 h -3.049801 c -0.0083,-0.0858 -0.01327,-0.573428 -0.01327,-0.696409 V 7.6799913 c 0.775274,-0.142066 1.36956,-0.2135535 1.783045,-0.2135535 z m 19.498594,0 h 8.63e-4 c 0.438827,8.92e-5 0.742077,0.064643 0.909951,0.1938273 0.180918,0.1292865 0.290588,0.3103066 0.32934,0.5428898 0.03866,0.2325833 0.05825,0.6398317 0.05825,1.2212902 v 3.6612919 h -3.048937 c -0.0083,-0.08862 -0.01327,-0.584944 -0.01327,-0.715277 V 7.6799913 c 0.710284,-0.1419825 1.298314,-0.2134718 1.76333,-0.2135535 z"
       sodipodi:nodetypes="scccccsccscscccccccccccccsssccccccccsccscccccccsccsssccccssccsccscsssccsccscsss" />
    <path
       style="font-size:11.6782px;line-height:1.25;font-family:'Suez One';-inkscape-font-specification:'Suez One, Normal';text-align:center;text-anchor:middle;fill:#d400aa;fill-opacity:1;stroke-width:0.264583"
       d="M 67.079924,0.87709143 70.374786,0.00491385 71.169459,2.95092 67.893929,3.8424824 Z"
       id="path59" />
  </g>
</svg>
